<?xml version="1.0" encoding="utf-8"?>
<!-- Generator: Adobe Illustrator 19.2.1, SVG Export Plug-In . SVG Version: 6.00 Build 0)  -->
<svg version="1.1" id="Layer_1" xmlns="http://www.w3.org/2000/svg" xmlns:xlink="http://www.w3.org/1999/xlink" x="0px" y="0px"
	 viewBox="0 0 244.1 244.8" style="enable-background:new 0 0 244.1 244.8;" xml:space="preserve">
<style type="text/css">
	.st0{display:none;fill:#FFFFFF;}
	.st1{display:none;fill:#3D2C39;}
	.st2{display:none;}
	.st3{display:inline;fill:#3D2C39;}
	.st4{display:inline;fill:#F0B01E;}
	.st5{fill:none;stroke:#3D2C39;stroke-width:13;stroke-miterlimit:10;}
	.st6{fill:none;stroke:#F0B01E;stroke-width:11;stroke-miterlimit:10;}
</style>
<rect x="42.1" y="80.1" class="st0" width="165.1" height="43"/>
<rect x="42.1" y="123.1" class="st1" width="143.1" height="74.6"/>
<g class="st2">
	<path class="st3" d="M54.5,128.1H43.2c1,23.6,2.9,54.9,59.2,57.1c31.3,0,43.3,0,74.6,0v-11c-29.1,0-40.2,0-69.4,0
		C55.3,171.9,55.5,151.7,54.5,128.1z"/>
	<path class="st4" d="M121.7,7.9C58.1,7.9,6.5,59.4,6.5,123.1s51.6,115.3,115.2,115.2c63.6,0,115.2-51.6,115.2-115.2
		S185.3,7.9,121.7,7.9z M177,185.2c-31.3,0-43.3,0-74.6,0c-56.3-2.2-58.2-33.5-59.2-57.1h11.3c1,23.6,0.8,43.8,53.1,46.1
		c29.2,0,40.3,0,69.4,0V185.2z M177.3,170.7c-28.3,0-39.1,0-67.3,0c-50.8-2-50.7-20.7-51.6-42.5h17c1.5,20.4,4.4,28.3,34.5,29h67.4
		V170.7z"/>
</g>
<rect x="158.8" y="99.1" class="st0" width="41.4" height="16"/>
<rect x="101" y="99.1" class="st0" width="41.4" height="16"/>
<rect x="43.3" y="99.1" class="st0" width="41.4" height="16"/>
<path class="st5" d="M179.3,180H98.6c0,0-51.7,1.2-49-51.8"/>
<path class="st5" d="M179,163.4h-76c0,0-38.5,2.6-37-35.3"/>
<line class="st5" x1="42.1" y1="107.1" x2="84.7" y2="107.1"/>
<line class="st5" x1="101" y1="107.1" x2="142.4" y2="107.1"/>
<line class="st5" x1="158.8" y1="106.7" x2="200.2" y2="106.7"/>
<path class="st6" d="M235.7,106.7c0,0-13.4-89.6-101.8-98.2s-120.5,75-120.5,75s-26.7,64.1,24.1,118.2s118.3,31.4,118.3,31.4
	S245.3,207.9,235.7,106.7z"/>
</svg>
